<svg xmlns="http://www.w3.org/2000/svg" width="300" height="300"><path d="M152.785 298.133c13.639-6.22 26.526-13.543 38.315-21.778 11.399-7.958 22.07-16.961 31.691-26.782 18.211-18.554 33.396-40.637 45.132-65.642 20.666-44.024 31.148-97.813 31.148-159.884v-5.08l-4.903-1.37c-4.938-1.38-23.453-6.211-54.107-10.557C209.939 2.767 179.634.6 150.003.6c-29.64 0-59.944 2.167-90.072 6.44C29.277 11.386 10.78 16.217 5.83 17.598l-4.9 1.37v5.079c0 62.07 10.477 115.86 31.145 159.884 11.731 25.005 26.921 47.088 45.13 65.642 9.636 9.82 20.296 18.824 31.688 26.782 11.792 8.235 24.682 15.559 38.329 21.778l2.782 1.268 2.782-1.268z" style="fill:#fcc700"/><path d="M150.003 292.033C258.478 242.55 292.371 134.978 292.371 24.047 273.21 18.707 216.998 7.3 150.003 7.3 82.997 7.3 26.783 18.707 7.638 24.047c0 110.931 33.893 218.504 142.365 267.986z" style="fill:#003478"/><path d="M281.665 48.24c3.023-3.213 3.843-6.6 3.832-9.396 0-3.728-1.473-6.45-1.508-6.423-5.828 6.691-33.495 33.078-74.001 36.626v-3.768c0-.225-.107-.295-.304-.295h-43.53a283.2 283.2 0 0 1-.805-5.746l-.008-.006v-.015c0-.031-.076-.494-.076-.494-.604-4.36-1.13-8.15-1.97-10.401 1.91-1.355 3.513-3.257 4.631-5.516 1.061-2.098 1.627-4.41 1.613-6.484v-.448l-.373.234c-.552.338-2 .901-2.01.904-2.055.77-5.76 1.59-11.663 1.165-3.164-.228-5.992-.286-8.431-.188-2.528.116-4.548.402-6.03.876-1.63.502-2.913 1.164-3.93 2.025-.878.73-1.364 1.465-1.681 1.97-2.543-.161-5.814.145-8.18.772-1.59.419-2.769 1.156-3.575 2.24-.812 1.08-1.222 2.47-1.245 4.22v.012c0 1.035.228 2.783.867 4.598.829 2.36 2.123 4.296 3.85 5.764l.353.3.061-.459c.026-.116.448-2.838 4.505-2.947.381 0 1.063.008 1.372.014.908.038 1.57.26 1.884.639.287.364.367.99.229 1.866 0 .081-.365 2.17-1.026 4.395l-.012.006v.009c-.014.04-.09.294-.199.696H90.313c-.193 0-.303.07-.303.295v3.768C49.5 65.5 21.837 39.113 16.003 32.42c-.035-.026-1.503 2.696-1.503 6.423 0 2.798.807 6.184 3.843 9.397 0 0 .01.011.035.055-1.216 2.999-2.866 11.107 5.207 17.908-.15.763-.28 1.936-.28 3.156 0 4.05 1.473 10.058 8.948 15.077 0 0 .52.352.858.566-.12 1.583.078 13.309 16.88 17.455 1.653 4.828 6.267 10.951 17.577 11.708 3.18 5.181 7.758 7.819 14 7.758 1.487 2.315 4.394 4.181 7.85 5.022 2.288.535 4.617.592 6.888.15.722.564 2.051 1.344 3.782 2.02 0 0 .01.006.04.011-2.016 1.462-3.002 3.266-3.683 5.36-1.101 3.375-1.101 6.565 2.438 11.188 1.193 1.653 1.867 3.051 2.23 4.684.362 1.592.434 3.415.434 6.036 0 1.65.338 3.195 1 4.594.662 1.378 1.636 2.58 2.84 3.45.694.511 1.486.91 2.33 1.194a8.475 8.475 0 0 0-1.182 2.34 9.005 9.005 0 0 0-.266 4.45c.274 1.522.915 2.967 1.892 4.305 1.535 2.115 2.555 3.638 3.19 5.132.661 1.542.95 3.065.942 5.105-.13 5.825 1.745 8.408 4.597 10.483 2.873 2.08 5.903 3.071 11.414 1.14 1.935-.632 3.464-.837 5.125-.68 1.63.152 3.387.65 5.878 1.456 1.566.517 3.146.667 4.675.473a9.37 9.37 0 0 0 4.166-1.632 8.515 8.515 0 0 0 1.855-1.858 8.598 8.598 0 0 0 1.858 1.858c1.193.86 2.638 1.421 4.155 1.632 1.529.194 3.1.044 4.67-.473 2.499-.806 4.255-1.304 5.877-1.457 1.667-.156 3.204.05 5.131.682 5.51 1.93 8.541.94 11.414-1.141 2.862-2.075 4.738-4.658 4.6-10.483 0-2.04.277-3.563.939-5.105.647-1.494 1.658-3.017 3.201-5.132.965-1.338 1.598-2.783 1.89-4.305a9.147 9.147 0 0 0-.272-4.45 7.966 7.966 0 0 0-1.185-2.34 8.333 8.333 0 0 0 2.338-1.2c1.196-.863 2.181-2.066 2.831-3.444.674-1.399.998-2.944.998-4.594.013-2.62.083-4.444.439-6.036.355-1.633 1.034-3.031 2.239-4.684 3.522-4.623 3.522-7.813 2.427-11.188-.682-2.094-1.676-3.898-3.673-5.36.01-.006.027-.011.027-.011 1.744-.676 3.054-1.456 3.776-2.02 2.288.442 4.62.385 6.894-.15 3.453-.84 6.374-2.707 7.853-5.022 6.242.06 10.815-2.577 13.997-7.758 11.306-.757 15.932-6.88 17.588-11.708 16.784-4.146 16.992-15.872 16.874-17.455.333-.214.864-.566.864-.566 7.466-5.02 8.94-11.026 8.94-15.077 0-1.22-.139-2.393-.277-3.156 8.067-6.801 6.42-14.91 5.215-17.908.009-.044.034-.055.034-.055m-152.66 36.314c-3.25-.33-10.138-1.682-15.458-7.345-1.219-1.3-2.67-2.638-4.002-3.656 2.508.226 16.912 1.526 22.14 1.983a241.138 241.138 0 0 1-2.68 9.018m57.457-7.345c-5.32 5.663-12.225 7.015-15.479 7.345-.996-3.182-1.91-6.242-2.658-9.018 5.215-.457 19.62-1.757 22.127-1.983-1.343 1.018-2.77 2.356-3.99 3.656z" style="fill:#a05d13"/><path d="M217.685 93.266H199.57l.057-.116 8.998-19.509 9.061 19.625zM224.538 83.064c-2.698.944-5.582 1.413-8.448 1.571l-2.89-6.148a130.49 130.49 0 0 0 19.007-4.054c-.277 1.994-1.572 6.504-7.669 8.63zM226.31 84.61c-.977 3.996-3.135 6.703-6.434 8.093l-2.853-6.088c2.792-.188 5.597-.69 8.25-1.613.358-.118.693-.254 1.037-.393zM178.871 126.194c0-.289-.078-.543-.282-.745a.952.952 0 0 0-.714-.295c-.119 0-.229.014-.338.043a.983.983 0 0 0-.39.252l-9.897 10.072a24.934 24.934 0 0 0-2.274-2.106l8.854-11.824c1.248-1.728 3.097-2.953 5.012-2.973 2.066.006 3.948.907 5.381 2.846 1.612 2.23 2.927 3.89 4.444 5.198-3.19 2.228-11.119 7.764-18.366 12.835a24.77 24.77 0 0 0-1.916-2.696l10.204-9.89a.87.87 0 0 0 .282-.717zM166.816 117.116c-.094-.255-.253-.463-.502-.584a1.031 1.031 0 0 0-.798-.043.904.904 0 0 0-.586.494l-6.264 12.757a24.37 24.37 0 0 0-3.14-.989 14536.68 14536.68 0 0 1 6.523-21.425c1.696 1.035 3.693 1.766 6.31 2.612 2.292.777 3.725 2.266 4.373 4.242.58 1.832-.02 3.961-1.275 5.683l-8.506 12.084a22.007 22.007 0 0 0-2.719-1.523l6.524-12.51c.09-.145.11-.302.11-.46a.971.971 0 0 0-.05-.338zM133.241 117.913l6.525 12.511c-.94.445-1.847.95-2.722 1.523l-8.5-12.084c-1.258-1.722-1.847-3.851-1.266-5.683.632-1.976 2.071-3.465 4.354-4.242 2.615-.846 4.62-1.577 6.328-2.612 1.136 3.713 3.936 12.96 6.516 21.425-1.078.26-2.121.59-3.14.989l-6.269-12.758a.887.887 0 0 0-.592-.493 1.02 1.02 0 0 0-.791.043.933.933 0 0 0-.494.584.809.809 0 0 0-.058.337c0 .16.029.316.11.46zM121.41 126.91l10.205 9.891a23.41 23.41 0 0 0-1.919 2.696c-7.252-5.07-15.175-10.607-18.365-12.835 1.514-1.309 2.829-2.967 4.447-5.198 1.427-1.939 3.308-2.84 5.38-2.846 1.915.02 3.756 1.245 5.01 2.973l8.86 11.824c-.801.661-1.573 1.36-2.284 2.106l-9.881-10.072a.954.954 0 0 0-.402-.252 1.285 1.285 0 0 0-.33-.043.955.955 0 0 0-.722.294 1.046 1.046 0 0 0-.292.746.976.976 0 0 0 .292.717zM197.401 81.645c1.919-1.251 4.034-2.026 6.242-2.242l-1.737 3.678a37.368 37.368 0 0 1-4.505-1.436zM201.05 84.913l-2.204 4.649a61.437 61.437 0 0 1-6.062-3.493c.11-.136.208-.27.318-.41a19.487 19.487 0 0 1 2.467-2.627c1.35.618 3.237 1.283 5.482 1.88z" style="fill:#fcc700"/><path d="M191.134 84.162c-4.054 5.426-10.763 9.012-17.14 9.636-.682-2.113-1.384-4.216-2.055-6.29 3.722-.405 10.9-2.009 16.788-8.287 3.664-3.904 8.412-7.175 15.24-7.14a82.1 82.1 0 0 0 3.151-.049l-2.36 5.013c-4.623.026-9.766 1.965-13.624 7.117zM177.404 115.957c-.408.063-.801.165-1.206.292-.13.052-.277.1-.416.15.01-.15.018-.292.018-.44 0-.875-.13-1.721-.393-2.522-.029-.05-.04-.098-.058-.147a9.242 9.242 0 0 0 1.116-1.85c.421 1.639.74 3.162.939 4.517zM174.578 111.637c-1.026-1.664-2.615-2.993-4.591-3.808.372-.283 2.664-2.202 3.545-6.204.876 2.665 1.681 5.239 2.349 7.617a9.706 9.706 0 0 1-1.303 2.395zM166.444 98.935c1.063-1.043 2.962-3.45 3.652-7.567.012-.015.02-.023.02-.035.619 1.852 1.246 3.713 1.859 5.577l.034.107c.194.578.387 1.176.593 1.768-.125 3.996-2.231 6.605-3.086 7.163-.842-.552-2.901-3.106-3.072-7.013zM168.455 107.286c-1.901-.622-3.375-1.19-4.62-1.876a9.32 9.32 0 0 0 1.826-3.172c.714 2.63 2.014 4.262 2.794 5.048zM169.538 89.553a3.549 3.549 0 0 1-.542.506c-.815-.511-2.743-2.765-3.165-6.299.264-.22.806-.734 1.385-1.549.725 2.37 1.508 4.837 2.323 7.342zM168.614 91.978v.002c-.881 3.202-2.554 5.178-3.3 5.661-.806-.517-2.701-2.794-3.196-6.461.613-.532 2.075-2.031 2.954-4.684 1.124 3.742 3.409 5.4 3.542 5.482zM161.437 89.487c-.772-.503-2.529-2.638-2.982-5.944.728-.67 2.184-2.303 2.982-5.105.791 2.802 2.248 4.435 2.97 5.105-.442 3.306-2.213 5.44-2.97 5.944zM157.628 81.983c-.76-.494-2.508-2.6-2.976-5.854.731-.67 2.182-2.314 2.976-5.097.79 2.783 2.23 4.427 2.953 5.097-.459 3.253-2.204 5.36-2.953 5.854zM156.787 83.543c-.447 3.306-2.204 5.44-2.981 5.944-.752-.503-2.529-2.638-2.97-5.944.722-.67 2.18-2.303 2.97-5.105.797 2.802 2.26 4.435 2.981 5.105zM150.003 81.983c-.76-.494-2.508-2.6-2.961-5.854.722-.67 2.166-2.314 2.961-5.097.783 2.783 2.242 4.427 2.962 5.097-.471 3.253-2.199 5.36-2.962 5.854zM149.162 83.543c-.448 3.306-2.21 5.44-2.976 5.944-.763-.503-2.528-2.638-2.976-5.944.723-.67 2.179-2.303 2.976-5.105.797 2.802 2.266 4.435 2.976 5.105zM142.378 81.983c-.755-.494-2.494-2.6-2.959-5.854.72-.67 2.173-2.314 2.96-5.097.782 2.783 2.244 4.427 2.966 5.097-.474 3.253-2.204 5.36-2.967 5.854zM141.554 83.543c-.465 3.306-2.221 5.44-2.982 5.944-.77-.503-2.53-2.638-2.981-5.944.722-.67 2.19-2.303 2.981-5.105.78 2.802 2.254 4.435 2.982 5.105zM137.874 91.18c-.498 3.667-2.384 5.944-3.19 6.461-.752-.483-2.425-2.46-3.3-5.66v-.003c.141-.081 2.43-1.74 3.545-5.482.875 2.653 2.329 4.152 2.944 4.684zM124.218 116.399c-.15-.05-.28-.098-.422-.15a8.13 8.13 0 0 0-1.196-.292c.193-1.355.522-2.878.925-4.516.355.757.75 1.355 1.126 1.849a.5.5 0 0 0-.049.147 7.975 7.975 0 0 0-.396 2.523c0 .147 0 .289.012.44v-.001zM124.116 109.242c.665-2.378 1.486-4.952 2.35-7.617.88 4.002 3.181 5.92 3.545 6.204-1.976.815-3.565 2.144-4.588 3.808a9.918 9.918 0 0 1-1.307-2.395zM127.408 98.785c.193-.592.384-1.19.592-1.768l.035-.107c.612-1.864 1.23-3.719 1.843-5.577.012.012.024.02.024.035.687 4.117 2.597 6.524 3.648 7.567-.17 3.907-2.227 6.461-3.071 7.013-.852-.558-2.953-3.167-3.071-7.163zM134.337 102.238c.468 1.37 1.153 2.415 1.834 3.172-1.262.685-2.73 1.254-4.631 1.876.78-.786 2.083-2.419 2.797-5.048zM131.01 90.059a3.951 3.951 0 0 1-.557-.506 351.97 351.97 0 0 0 2.326-7.342c.581.815 1.124 1.33 1.387 1.55-.421 3.533-2.35 5.787-3.155 6.298zM111.267 79.22c5.892 6.28 13.07 7.883 16.794 8.288a476.51 476.51 0 0 1-2.066 6.29c-6.366-.624-13.074-4.21-17.123-9.636-3.857-5.152-9.012-7.091-13.632-7.117l-2.37-5.013c1.067.035 2.112.055 3.162.049 6.83-.035 11.577 3.236 15.235 7.14z" style="fill:#fcc700"/><path d="M102.596 81.645a37.368 37.368 0 0 1-4.505 1.436l-1.736-3.678c2.22.216 4.326.99 6.241 2.242zM104.422 83.032a19.114 19.114 0 0 1 2.476 2.626c.107.142.217.275.327.41a63.303 63.303 0 0 1-6.07 3.494l-2.196-4.65c2.245-.597 4.12-1.262 5.463-1.88zM103.05 93.598l-1.02-2.175a59.07 59.07 0 0 0 6.498-3.817 30.425 30.425 0 0 0 2.774 2.678c-2.334 2.792-9.731 10.59-19.292 10.466-5.459-.072-8.261-2.745-9.602-4.713 2.112 1.08 5.241 2.196 8.96 2.196 6.002 0 10.312-2.782 11.532-3.794.392-.343.274-.586.15-.84z" style="fill:#fcc700"/><path d="M112.894 91.51a24.917 24.917 0 0 0 3.225 1.956c-1.35 2.537-6.524 11.182-15.115 12.63-5.151.866-7.778-1.78-8.824-3.28 10.69.026 18.374-8.391 20.714-11.306z" style="fill:#fcc700"/><path d="M117.928 94.289c1.204.5 2.467.893 3.782 1.202-.962 2.895-3.768 9.989-8.755 12.875-4.65 2.667-8.128.786-9.844-.647 8.772-2.39 13.612-10.994 14.817-13.43z" style="fill:#fcc700"/><path d="M114.038 110.097c5.855-3.354 8.747-11.283 9.657-14.207.511.078 1.014.147 1.549.214-1.578 4.715-3.113 9.306-4.199 13.317-2.97 2.439-6.368 1.748-7.983 1.196.326-.156.647-.33.976-.52zM137.755 104.37c-1.084-.832-2.314-2.493-2.638-4.825.214-.142 2.36-1.8 3.484-5.435 1.185 3.375 3.225 4.93 3.355 5.013l.228.156c-.612.65-1.205 1.413-1.806 2.274-.866 1.188-1.698 2.089-2.623 2.817zM139.202 91.235c.613-.517 2.3-2.199 3.176-5.285.881 3.086 2.569 4.768 3.181 5.285-.635 3.325-2.41 5.47-3.18 5.975-.767-.505-2.544-2.65-3.177-5.975zM146.38 93.466c.407 1.06.901 1.93 1.384 2.617a9.044 9.044 0 0 0-2.578.844c-.24.121-.474.26-.71.413.67-.916 1.393-2.187 1.903-3.874zM147.033 91.056c.722-.673 2.175-2.315 2.97-5.106.783 2.791 2.25 4.433 2.973 5.106-.661 2.459-1.898 4.166-2.673 4.863-.11-.015-.199-.015-.3-.015-.098 0-.202 0-.303.015-.772-.697-2.026-2.404-2.667-4.863zM153.627 93.466a12.873 12.873 0 0 0 1.898 3.874 9.207 9.207 0 0 0-.714-.413 8.973 8.973 0 0 0-2.566-.844c.466-.687.974-1.557 1.382-2.617zM154.45 91.235c.601-.517 2.297-2.199 3.178-5.285.867 3.086 2.563 4.768 3.167 5.285-.638 3.325-2.41 5.47-3.167 5.975-.771-.505-2.55-2.65-3.178-5.975zM158.036 99.123c.136-.084 2.167-1.638 3.36-5.013 1.127 3.635 3.265 5.293 3.485 5.435-.323 2.332-1.557 3.993-2.641 4.825-.922-.728-1.76-1.63-2.62-2.817a20.304 20.304 0 0 0-1.795-2.274l.211-.156zM174.766 96.104a55.87 55.87 0 0 0 1.534-.214c.916 2.924 3.817 10.853 9.66 14.207.337.19.66.364.984.52-1.612.552-5.021 1.243-7.992-1.196-1.086-4.01-2.61-8.602-4.186-13.317z" style="fill:#fcc700"/><path d="M178.29 95.491a24.104 24.104 0 0 0 3.777-1.202c1.22 2.436 6.048 11.04 14.812 13.43-1.708 1.433-5.175 3.314-9.84.647-4.986-2.886-7.79-9.98-8.748-12.875z" style="fill:#fcc700"/><path d="M183.89 93.466a24.785 24.785 0 0 0 3.213-1.956c2.335 2.915 10.021 11.332 20.715 11.306-1.044 1.5-3.673 4.146-8.828 3.28-8.587-1.448-13.767-10.093-15.1-12.63z" style="fill:#fcc700"/><path d="M188.692 90.284c.96-.812 1.89-1.707 2.769-2.678a61.364 61.364 0 0 0 6.504 3.817l-1.026 2.175c-.118.255-.223.498.159.841 1.214 1.012 5.53 3.794 11.526 3.794 3.725 0 6.854-1.115 8.96-2.196-1.332 1.968-4.14 4.64-9.596 4.713-9.567.124-16.952-7.674-19.296-10.466zM207.257 67.842v1.37s-31.575 2.557-39.718 3.268a58.11 58.11 0 0 1-.832-4.095v-.025c-.034-.168-.058-.344-.092-.518h40.642zM166.65 80.34c-.503.851-1.056 1.412-1.41 1.643-.761-.494-2.489-2.6-2.963-5.854.578-.552 1.59-1.713 2.292-3.594.54 2.366 1.262 5.004 2.08 7.804zM133.525 54.473h-.01c-.354-.015-1.077-.015-1.458-.015-.682 0-3.817.067-4.698 1.95a12.014 12.014 0 0 1-1.465-2.95c-.361-1.106-.561-2.259-.561-3.34.02-1.12.234-1.93.65-2.505.413-.537 1.066-.919 2.003-1.173 2.135-.563 5.195-.832 7.434-.667l.012.008h.02l.72.047c1.1.043 4.146 1.785 6.004 4.677 0 0 6.524-1.213 10.94-5.518 0 0-8.219.847-15.027-.125-.109-.014-.349-.115-.216-.404 0 0 .026-.078.095-.173v-.015c.544-.82 1.384-1.843 3.927-2.638h.015c1.216-.384 3.048-.641 5.287-.731 2.315-.104 5.037-.046 8.097.18 4.611.332 8.03-.056 10.468-.622-.702 1.84-1.99 4.03-4.334 5.632h-.02v.005l-.827.572-.88.613.42.991.377.905c.754 1.886 1.288 5.625 1.89 9.945l.068.509c.365 2.71.806 5.932 1.39 9.223a.93.93 0 0 0 .02.182c-.17 3.045-1.672 5.018-2.41 5.524h-.049c-.887-.595-3.022-3.302-3.056-7.405H156.892c-.036 4.103-2.17 6.81-3.055 7.405h-.04c-.902-.595-3.031-3.302-3.071-7.405h-1.454c-.029 4.103-2.17 6.81-3.06 7.405h-.049c-.878-.595-3.022-3.302-3.063-7.405h-1.456c-.032 4.103-2.167 6.81-3.063 7.405h-.029c-.722-.488-2.146-2.349-2.398-5.23.48-1.91 1.104-4.103 1.144-4.23a43.392 43.392 0 0 0 1.118-4.75v-.009c.275-1.736-.014-3.14-.87-4.175-.852-1.04-2.233-1.63-4.021-1.693zM137.72 76.13c-.474 3.252-2.21 5.359-2.964 5.853-.35-.231-.893-.792-1.41-1.644.832-2.8 1.542-5.438 2.086-7.804.702 1.88 1.708 3.042 2.288 3.594zM92.74 67.842h40.785a64.862 64.862 0 0 0-.552 2.289V70.15a78.338 78.338 0 0 1-.518 2.329c-8.491-.737-39.715-3.268-39.715-3.268v-1.37zM91.368 73.641l9.015 19.51.058.115H82.316l9.052-19.625zM74.733 85.002c2.639.922 5.453 1.425 8.253 1.613l-2.86 6.088c-3.306-1.39-5.462-4.097-6.438-8.094.335.14.687.275 1.045.393zM67.784 74.433a131.18 131.18 0 0 0 19.004 4.054l-2.872 6.148c-2.88-.158-5.758-.627-8.46-1.571-6.091-2.127-7.397-6.637-7.672-8.631zM17.471 38.087c16.924 17.227 45.812 31.876 72.417 33.78l-2.109 4.516c-35.277-4.279-60.01-23.06-67.74-30.55-2.805-2.713-3.128-5.983-2.568-7.746z" style="fill:#fcc700"/><path d="M20.803 49.74c7.353 6.565 23.285 17.351 44.76 24.014.089 1.306.62 4.938 3.701 7.955-14.066-1.723-33.278-8.423-43.754-17.614-6.516-5.701-5.782-11.388-4.707-14.355z" style="fill:#fcc700"/><path d="M26.183 67.747c12.095 9.338 31.627 15.097 45.182 16.247.456 2.398 1.358 4.895 3.036 6.972-12.254.94-28.712-.985-40.57-8.94-7.608-5.117-8.018-11.234-7.648-14.28z" style="fill:#fcc700"/><path d="M47.345 98.924c-6.247-2.378-10.63-6.594-11.263-12.743 12.508 6.8 28.55 7.886 40.22 6.68.85.682 1.856 1.286 3.011 1.757.17.489 1.011 2.624 3.112 4.589-4.612 1.424-20.229 5.383-35.08-.283z" style="fill:#fcc700"/><path d="M68.782 111.397c-7.889-.289-13.052-3.025-15.376-8.188 15.5 3.25 29.268-1.8 30.993-2.477 1.384.864 3.1 1.572 5.238 1.89.092.208.754 1.563 2.17 2.907-2.67 1.543-11.823 6.282-23.025 5.868zM70.714 113.85c10.755-.193 19.993-5.05 22.885-6.972 1.681 1.009 3.99 1.708 7.032 1.338.338.364.855.855 1.532 1.364-2.35 2.274-8.55 7.51-17.27 9.03-6.556 1.138-11.035-.443-14.179-4.76zM90.391 124.279c-2.337-.301-4.478-1.659-5.779-3.107 10.206-1.39 17.054-7.85 19.429-10.436 1.696.84 3.915 1.37 6.53.765.326.35.95.729 1.771 1.038-2.375 3.273-10.587 13.164-21.95 11.74z" style="fill:#fcc700"/><path d="M99.681 125.74c8.007-2.796 13.392-10.237 14.935-12.615 1.73.243 3.768.124 5.71-.777-.303 1.315-.535 2.537-.662 3.664-2.3.436-4.41 1.832-5.955 3.955-2.993 4.118-4.606 5.918-8.619 7.224-.023.003-.064.014-.084.017a13.01 13.01 0 0 1-5.325-1.468zM101.224 143.993c-3.098-4.256-2.603-6.472-1.919-8.576.673-2.1 1.578-4.175 6.591-5.802 1.528-.5 2.774-1.08 3.869-1.78 2.921 2.011 11.41 7.83 19.11 13.107-.453.89-.867 1.817-1.213 2.774l-19.024-6.41a1.111 1.111 0 0 0-1.384.694c-.179.581.136 1.194.714 1.384l19.15 5.993c-.276.97-.482 1.956-.64 2.962-9.32-.266-19.617-.544-23.171-.642-.47-1.21-1.144-2.41-2.083-3.704zM107.115 161.85c-1.676-1.22-2.66-3.046-2.693-5.464 0-2.742-.078-4.87-.537-6.81 3.892.066 13.557.245 22.402.41a24.587 24.587 0 0 0-.073 1.907c0 .47.015.93.038 1.398l-14.069 2.005c-.265.04-.502.2-.661.414-.162.228-.24.49-.191.77.029.279.179.492.41.663.084.07.194.118.283.158a.939.939 0 0 0 .483.03l13.91-2.344c.141 1.032.338 2.054.604 3.057l-14.118 4.358c-2.025.653-4.233.563-5.788-.553zM110.484 175.04c-1.393-1.97-1.673-4.022-1.034-5.999.6-1.82 2.334-3.19 4.36-3.86l13.982-4.765c.373.983.812 1.927 1.303 2.829l-12.627 6.282c-.15.07-.26.179-.358.312a.836.836 0 0 0-.156.298c-.072.254-.072.522.06.77.136.25.345.411.613.51.255.095.544.069.786-.056l12.558-6.642a24.721 24.721 0 0 0 1.965 2.647c-7.057 5.33-14.777 11.164-17.878 13.508-.77-1.841-1.944-3.618-3.574-5.834zM131.589 195.009c-1.3.075-2.653.338-4.181.835-4.999 1.632-6.955.468-8.74-.824-1.786-1.306-3.485-2.8-3.485-8.059 0-1.618-.168-2.973-.492-4.235 2.811-2.161 10.983-8.443 18.38-14.136a25.757 25.757 0 0 0 2.25 2.02l-11.976 16.112a1.078 1.078 0 0 0 .24 1.522c.482.365 1.176.235 1.523-.228l11.638-16.38c.83.564 1.705 1.07 2.607 1.529-3.13 8.79-6.574 18.489-7.764 21.844zM148.535 190.414c0 2.142-.771 4.202-2.314 5.34-1.688 1.216-3.722 1.595-6.022.873-2.612-.861-4.657-1.434-6.66-1.593 1.28-3.684 4.43-12.817 7.322-21.184 1.011.433 2.06.777 3.13 1.057l-2.428 14a.928.928 0 0 0 .18.756c.167.228.392.379.67.422.28.055.534-.02.748-.182.11-.06.18-.142.237-.234.101-.127.17-.28.2-.434l2.062-13.96c1.008.19 2.046.314 3.089.369l-.214 14.77zM150.003 106.953c-.612 0-1.095.497-1.095 1.095l.214 20.08c-1.023.037-2.02.132-3.01.297-2.633-8.946-5.555-18.816-6.566-22.234 1.011-.83 1.942-1.838 2.892-3.13 3.098-4.267 5.346-4.475 7.565-4.475 2.208 0 4.47.208 7.553 4.475.948 1.292 1.881 2.3 2.89 3.13-1.009 3.418-3.916 13.288-6.565 22.234-.977-.165-1.99-.26-3.01-.298l.219-20.079c0-.598-.483-1.095-1.087-1.095zM159.81 196.627c-2.3.722-4.346.343-6.022-.873-1.554-1.138-2.326-3.198-2.326-5.34l-.213-14.77c1.054-.055 2.08-.18 3.091-.37l2.07 13.961c.025.154.088.307.178.434.081.092.15.173.246.234.228.162.477.237.745.182a.986.986 0 0 0 .676-.422.931.931 0 0 0 .191-.757l-2.43-13.999a22.189 22.189 0 0 0 3.12-1.057c2.893 8.367 6.042 17.5 7.308 21.184-1.985.16-4.022.732-6.634 1.593zM184.815 186.961c.009 5.26-1.7 6.753-3.484 8.059-1.798 1.292-3.734 2.456-8.744.824-1.523-.497-2.878-.76-4.178-.835-1.179-3.355-4.637-13.055-7.758-21.844.907-.46 1.783-.965 2.612-1.53l11.62 16.381a1.113 1.113 0 0 0 1.535.228c.492-.352.587-1.04.243-1.522l-11.985-16.112a26.24 26.24 0 0 0 2.26-2.02c7.396 5.693 15.55 11.975 18.382 14.136-.335 1.262-.494 2.617-.503 4.235zM189.513 175.04c-1.618 2.216-2.791 3.993-3.568 5.834-3.106-2.344-10.815-8.177-17.883-13.508a25.261 25.261 0 0 0 1.977-2.647l12.554 6.642a.96.96 0 0 0 .774.056c.263-.099.483-.26.616-.51a.971.971 0 0 0 .06-.77.711.711 0 0 0-.152-.298.925.925 0 0 0-.356-.312l-12.632-6.282c.494-.902.927-1.846 1.314-2.829l13.97 4.765c2.023.67 3.754 2.04 4.355 3.86.644 1.977.375 4.028-1.029 5.999zM195.57 156.386c-.015 2.418-1 4.244-2.688 5.463-1.551 1.116-3.773 1.206-5.793.553l-14.12-4.358a23.4 23.4 0 0 0 .62-3.057l13.899 2.343c.167.036.326.02.476-.029.11-.04.211-.089.304-.158a.995.995 0 0 0 .399-.662c.049-.28-.041-.543-.188-.771a.997.997 0 0 0-.665-.414l-14.069-2.005c.023-.468.035-.927.035-1.398 0-.644-.026-1.275-.07-1.907 8.854-.165 18.51-.344 22.403-.41-.456 1.94-.544 4.068-.544 6.81zM198.774 143.993c-.94 1.294-1.607 2.494-2.083 3.704-3.554.098-13.843.376-23.18.642a21.872 21.872 0 0 0-.632-2.962l19.163-5.993c.563-.19.89-.803.701-1.384a1.097 1.097 0 0 0-1.378-.693l-19.03 6.409a25.52 25.52 0 0 0-1.213-2.774c7.688-5.276 16.18-11.096 19.114-13.107 1.095.7 2.348 1.28 3.877 1.78 5.01 1.627 5.897 3.701 6.588 5.802.673 2.104 1.176 4.32-1.927 8.576zM194.992 127.208c-.024-.003-.058-.014-.084-.017-4.002-1.306-5.629-3.106-8.625-7.23-1.544-2.117-3.65-3.513-5.95-3.95a40.05 40.05 0 0 0-.65-3.663c1.925.901 3.976 1.02 5.696.777 1.54 2.378 6.94 9.819 14.935 12.615-1.214.645-2.996 1.33-5.322 1.468z" style="fill:#fcc700"/><path d="M209.615 124.279c-11.373 1.424-19.573-8.467-21.948-11.74.812-.31 1.433-.688 1.771-1.038 2.604.604 4.82.075 6.516-.765 2.375 2.586 9.226 9.046 19.431 10.436-1.288 1.448-3.45 2.806-5.77 3.107zM215.105 118.61c-8.709-1.52-14.927-6.756-17.262-9.03.68-.509 1.182-1 1.523-1.364 3.043.37 5.342-.33 7.045-1.338 2.877 1.922 12.118 6.779 22.87 6.972-3.13 4.317-7.62 5.898-14.176 4.76zM231.208 111.397c-11.2.414-20.36-4.325-23.015-5.868 1.422-1.344 2.075-2.699 2.164-2.907 2.136-.318 3.87-1.026 5.242-1.89 1.728.677 15.49 5.727 30.992 2.477-2.323 5.163-7.496 7.9-15.383 8.188z" style="fill:#fcc700"/><path d="M252.665 98.924c-14.864 5.666-30.493 1.707-35.081.283 2.086-1.965 2.933-4.1 3.1-4.589a12.597 12.597 0 0 0 3.023-1.756c11.655 1.205 27.703.118 40.22-6.68-.644 6.148-5.027 10.364-11.262 12.742z" style="fill:#fcc700"/><path d="M266.167 82.026c-11.847 7.955-28.323 9.88-40.571 8.94 1.685-2.077 2.58-4.574 3.049-6.972 13.543-1.15 33.072-6.909 45.167-16.247.373 3.045-.034 9.162-7.645 14.28z" style="fill:#fcc700"/><path d="M274.497 64.095c-10.491 9.19-29.689 15.891-43.772 17.614 3.089-3.017 3.612-6.649 3.713-7.955 21.46-6.663 37.406-17.45 44.76-24.014 1.07 2.967 1.815 8.654-4.7 14.355z" style="fill:#fcc700"/><path d="M279.958 45.834c-7.741 7.489-32.46 26.27-67.743 30.55l-2.106-4.517c26.609-1.904 55.506-16.553 72.41-33.78.568 1.763.242 5.033-2.56 7.747z" style="fill:#fcc700"/><path d="M150.003 130.748c-7.345 0-13.8 3.739-17.594 9.416-3.244 4.86-1.93 11.42 2.94 14.659 4.85 3.236 11.415 1.927 14.654-2.93a10.566 10.566 0 0 1 14.658-2.939c4.855 3.245 6.166 9.81 2.927 14.67a20.994 20.994 0 0 0 3.554-11.731c0-11.68-9.465-21.145-21.139-21.145z" style="fill:#c60c30"/><path d="M164.661 148.954a10.566 10.566 0 0 0-14.658 2.939c-3.239 4.857-9.804 6.166-14.655 2.93-4.869-3.24-6.183-9.799-2.939-14.659a21.051 21.051 0 0 0-3.554 11.729c0 11.679 9.469 21.142 21.148 21.142a21.089 21.089 0 0 0 17.585-9.411c3.24-4.86 1.928-11.425-2.927-14.67z" style="fill:#003478"/><path d="M220.849 167.972v7.66a2.513 2.513 0 0 0 2.508 2.514h21.27v-4.193h-18.75v-1.973h18.426v-10h-23.454v4.186h18.417v1.806H220.85zM244.303 149.665v-5.025h-5.037v15.918h5.037v-6.706h4.18v-4.187h-4.18zM77.976 147.327h-5.02v4.016h5.02v2.68h-5.02v4.021h5.02v3.355h5.021V144.64h-5.021v2.687zM71.613 160.382c-6.455 0-10.884 4.314-10.884 9.636 0 5.32 4.429 9.636 10.884 9.636 6.446 0 10.89-4.316 10.89-9.636 0-5.322-4.444-9.636-10.89-9.636m0 14.907c-3.583 0-5.695-2.359-5.695-5.271 0-2.916 2.112-5.276 5.695-5.276s5.698 2.36 5.698 5.276c0 2.912-2.115 5.27-5.698 5.27zM226.469 154.41c1.647 2.611 4.334 4.724 8.749 6.186l1.881-3.716s-5.692-1.604-7.53-7.215h6.351v-4.016h-6.865v-2.682h-5.195v2.682h-6.862v4.016h6.35c-1.838 5.611-7.52 7.215-7.52 7.215l1.866 3.716c4.421-1.462 7.108-3.575 8.775-6.187zM71.46 146.949c0-1.046-.841-1.89-1.878-1.89H55.198v4.195h10.454c-.485 2.05-2.548 6.961-11.488 8.79l1.158 3.915c13.057-2.37 16.138-10.278 16.138-15.01zM124.7 207.768c-7.226 0-13.08 5.854-13.08 13.08 0 7.233 5.854 13.092 13.08 13.092 7.227 0 13.09-5.859 13.09-13.091 0-7.227-5.863-13.08-13.09-13.08m0 20.933c-4.146 0-7.507-3.513-7.507-7.853 0-4.337 3.361-7.854 7.507-7.854 4.141 0 7.501 3.517 7.501 7.854 0 4.34-3.36 7.853-7.5 7.853zM154.713 233.412v-4.883h-8.383v-20.24h-5.579v25.123h13.962zM158.894 233.412h5.585v-25.124h-5.585v25.124zM193.087 208.288v25.124h15.355v-4.883h-9.766v-5.368h9.072v-4.895h-9.072v-5.097h9.422v-4.88h-15.01zM91.9 208.288v25.124h5.59v-6.972h3.13c5.007 0 9.084-4.069 9.084-9.08 0-5.006-4.077-9.072-9.084-9.072H91.9m8.018 13.255h-2.427v-8.374h2.427a4.192 4.192 0 0 1 4.195 4.192 4.177 4.177 0 0 1-4.195 4.182zM180.538 212.995c2.43 0 4.416 1.231 5.641 3.112l3.947-3.314c-2.063-3.057-5.412-5.024-9.588-5.024-7.226 0-13.089 5.853-13.089 13.08 0 7.232 5.863 13.091 13.09 13.091 4.175 0 7.524-1.976 9.587-5.033l-3.947-3.314c-1.225 1.893-3.21 3.109-5.64 3.109-4.146 0-7.507-3.513-7.507-7.853 0-4.337 3.36-7.854 7.506-7.854z" style="fill:#fff"/></svg>